<svg xmlns="http://www.w3.org/2000/svg" xmlns:xlink="http://www.w3.org/1999/xlink" width="75" height="75" viewBox="0 0 75 75">
  <defs>
    <linearGradient id="linear-gradient" x1="0.863" y1="-0.508" x2="0.289" y2="1.298" gradientUnits="objectBoundingBox">
      <stop offset="0" stop-color="#ff0100"/>
      <stop offset="0.274" stop-color="#0063d4"/>
      <stop offset="0.572" stop-color="#f24bc9"/>
      <stop offset="0.579" stop-color="#00c7d4"/>
      <stop offset="1" stop-color="#0194ff"/>
    </linearGradient>
  </defs>
  <g id="Group_1" data-name="Group 1" transform="translate(-556 -451)">
    <circle id="Ellipse_1" data-name="Ellipse 1" cx="37.5" cy="37.5" r="37.5" transform="translate(556 451)" fill="url(#linear-gradient)"/>
    <path id="Icon_map-bank" data-name="Icon map-bank" d="M18.881,13.12a8.363,8.363,0,0,0-3.237-1.358l-1.1-.26V6.786l.149.061A2.788,2.788,0,0,1,16.2,9.22h3.758A5.505,5.505,0,0,0,17.74,4.7a7.663,7.663,0,0,0-3.2-1.366V.72h-3.5V3.25A6.855,6.855,0,0,0,7.2,4.818a5.378,5.378,0,0,0-1.85,4.177,4.564,4.564,0,0,0,1.891,4.05,11.942,11.942,0,0,0,3.8,1.365v5.108A3.007,3.007,0,0,1,9.485,18.6a3.167,3.167,0,0,1-.713-1.876H5.04a5.378,5.378,0,0,0,2.117,4.548,7.83,7.83,0,0,0,3.883,1.5V24.72h3.5V22.8a7.406,7.406,0,0,0,4.031-1.6,5.371,5.371,0,0,0,1.982-4.259A4.58,4.58,0,0,0,18.881,13.12ZM9.874,10.212a1.607,1.607,0,0,1-.911-1.5,1.933,1.933,0,0,1,.924-1.7,3.54,3.54,0,0,1,1.153-.473v4.112A6.029,6.029,0,0,1,9.874,10.212Zm5.237,9.2a4.87,4.87,0,0,1-.571.153V15.22a6.244,6.244,0,0,1,1.424.582,1.6,1.6,0,0,1,.819,1.437A2.185,2.185,0,0,1,15.111,19.415Z" transform="translate(581.447 476.026)" fill="#fff"/>
  </g>
</svg>
