<svg xmlns="http://www.w3.org/2000/svg" xmlns:xlink="http://www.w3.org/1999/xlink" width="128.907" height="128.815" viewBox="0 0 128.907 128.815"><defs><style>.a{fill:url(#a);}</style><linearGradient id="a" x1="-0.664" y1="1" x2="-0.129" y2="1.862" gradientUnits="objectBoundingBox"><stop offset="0" stop-color="#00c7d4"/><stop offset="1" stop-color="#ff5100"/></linearGradient></defs><path class="a" d="M33.9,16.913a1.963,1.963,0,0,1,.186-2.738,50.071,50.071,0,0,1,65.2,0,1.963,1.963,0,0,1,.186,2.738,1.89,1.89,0,0,1-1.485.7,2.334,2.334,0,0,1-1.3-.464,46.1,46.1,0,0,0-60.092,0,2.217,2.217,0,0,1-1.3.464A1.848,1.848,0,0,1,33.9,16.913Zm97.121,6.682a7.778,7.778,0,0,1-15.313,2h-41.3v3.944a1.921,1.921,0,0,1-1.949,1.9H70.183l17.076,27.1a1.908,1.908,0,0,1,.046,2.042c-.093.093-7.424,12.529-8.4,26.914l.232,8.585H95.751c1.81-5.429,4.269-10.951,6.636-16.287,4.547-10.255,9.234-20.835,9.234-30.394a41.949,41.949,0,0,0-3.527-16.8,1.975,1.975,0,0,1,3.619-1.578,45.588,45.588,0,0,1,3.805,18.376c0,10.441-4.872,21.392-9.605,31.925-2.135,4.872-4.362,9.837-6.079,14.71h.51a1.952,1.952,0,0,1,1.949,1.9,1.931,1.931,0,0,1-1.949,1.949H99.37v7.007h.974a1.992,1.992,0,0,1,1.949,1.949,1.931,1.931,0,0,1-1.949,1.949H99.37v7.007h.974a1.961,1.961,0,0,1,1.949,1.949,1.921,1.921,0,0,1-1.949,1.9H90.136v.928a8.357,8.357,0,0,1-8.4,8.353H51.529a8.347,8.347,0,0,1-8.353-8.353v-.928H32.968a1.952,1.952,0,0,1-1.949-1.9,1.931,1.931,0,0,1,1.949-1.949h.974v-7.007h-.974a1.961,1.961,0,0,1-1.949-1.949,1.992,1.992,0,0,1,1.949-1.949h.974V99.881h-.974a1.961,1.961,0,0,1-1.949-1.949,1.921,1.921,0,0,1,1.949-1.9h.51c-1.717-4.872-3.9-9.837-6.079-14.71-4.733-10.533-9.605-21.531-9.605-31.925a45.635,45.635,0,0,1,3.851-18.376,1.9,1.9,0,0,1,2.552-.974A1.814,1.814,0,0,1,25.265,32.5a41.949,41.949,0,0,0-3.527,16.8c0,9.559,4.687,20.185,9.234,30.394,2.367,5.336,4.826,10.858,6.636,16.287h16.38l.186-8.585c-.974-14.385-8.306-26.775-8.353-26.914a1.908,1.908,0,0,1,.046-2.042l17.123-27.1H60.67a1.952,1.952,0,0,1-1.949-1.9v-3.9h-41.3A7.716,7.716,0,0,1,9.952,31.39,7.832,7.832,0,0,1,2.11,23.548a7.8,7.8,0,0,1,15.359-1.9h41.3V17.794a1.931,1.931,0,0,1,1.949-1.949H72.41a1.931,1.931,0,0,1,1.949,1.949v3.9h41.3a7.8,7.8,0,0,1,15.359,1.9Zm-117.214,0a3.921,3.921,0,0,0-3.9-3.9,3.921,3.921,0,1,0,3.9,3.9ZM63.64,60.9a2.9,2.9,0,0,0,5.8,0,2.9,2.9,0,0,0-5.8,0Zm22.6,60.834H47.074v.928a4.456,4.456,0,0,0,4.455,4.455H81.737a4.426,4.426,0,0,0,4.455-4.455v-.928Zm9.281-10.9H37.887v7.007H95.519v-7.007Zm0-3.944V99.881H37.887v7.007Zm-20.324-10.9-.186-6.728H58.072l-.139,6.728H75.194Zm8.074-36.426L68.512,36.17V54.36a6.821,6.821,0,1,1-3.9,0V36.216L49.812,59.6a71.163,71.163,0,0,1,8.167,25.8H75.1A73.419,73.419,0,0,1,83.269,59.557ZM70.461,19.7H62.619v7.842h7.842Zm56.658,3.9a3.9,3.9,0,1,0-3.9,3.944A3.962,3.962,0,0,0,127.119,23.595Z" transform="translate(-2.11 -2.11)"/></svg>