<svg xmlns="http://www.w3.org/2000/svg" width="30.037" height="35.744" viewBox="0 0 30.037 35.744">
  <path id="Icon_awesome-apple" data-name="Icon awesome-apple" d="M25.394,21.139a7.45,7.45,0,0,1,3.99-6.767,8.574,8.574,0,0,0-6.759-3.559c-2.833-.223-5.929,1.652-7.062,1.652-1.2,0-3.942-1.572-6.1-1.572C5.013,10.964.281,14.443.281,21.522A19.89,19.89,0,0,0,1.43,28c1.021,2.929,4.708,10.111,8.555,9.991,2.011-.048,3.431-1.428,6.049-1.428,2.538,0,3.854,1.428,6.1,1.428,3.878-.056,7.214-6.584,8.187-9.52a7.911,7.911,0,0,1-4.924-7.334Zm-4.517-13.1A7.516,7.516,0,0,0,22.793,2.25a8.462,8.462,0,0,0-5.418,2.785,7.634,7.634,0,0,0-2.043,5.738,6.7,6.7,0,0,0,5.546-2.737Z" transform="translate(-0.281 -2.25)"/>
</svg>
