<svg xmlns="http://www.w3.org/2000/svg" xmlns:xlink="http://www.w3.org/1999/xlink" width="223" height="223" viewBox="0 0 223 223">
  <defs>
    <linearGradient id="linear-gradient" x1="0.97" y1="-0.436" x2="0.289" y2="1.298" gradientUnits="objectBoundingBox">
      <stop offset="0" stop-color="#ff0100"/>
      <stop offset="0.274" stop-color="#ff5f00"/>
      <stop offset="0.572" stop-color="#f24bc9"/>
      <stop offset="0.579" stop-color="#00c7d4"/>
      <stop offset="1" stop-color="#0194ff"/>
    </linearGradient>
    <linearGradient id="linear-gradient-4" x1="0.863" y1="-0.508" x2="0.289" y2="1.298" gradientUnits="objectBoundingBox">
      <stop offset="0" stop-color="#ff0100"/>
      <stop offset="0.274" stop-color="#0063d4"/>
      <stop offset="0.572" stop-color="#f24bc9"/>
      <stop offset="0.579" stop-color="#00c7d4"/>
      <stop offset="1" stop-color="#0194ff"/>
    </linearGradient>
  </defs>
  <g id="Group_13604" data-name="Group 13604" transform="translate(0 -0.216)">
    <g id="Group_13521" data-name="Group 13521">
      <g id="noun_contract_2508063">
        <circle id="Ellipse_19" data-name="Ellipse 19" cx="111.5" cy="111.5" r="111.5" transform="translate(0 0.216)" opacity="0.05" fill="url(#linear-gradient)"/>
        <circle id="Ellipse_22" data-name="Ellipse 22" cx="85.5" cy="85.5" r="85.5" transform="translate(26 26.216)" opacity="0.1" fill="url(#linear-gradient)"/>
        <circle id="Ellipse_21" data-name="Ellipse 21" cx="60.5" cy="60.5" r="60.5" transform="translate(51 51.216)" opacity="0.2" fill="url(#linear-gradient)"/>
        <circle id="Ellipse_20" data-name="Ellipse 20" cx="37.5" cy="37.5" r="37.5" transform="translate(74 74.216)" fill="url(#linear-gradient-4)"/>
      </g>
      <g id="noun_portfolio_4209174" transform="translate(95.314 99.702)">
        <g id="Group_13558" data-name="Group 13558" transform="translate(0 0)">
          <path id="Path_568" data-name="Path 568" d="M30.909,6H1.667A1.673,1.673,0,0,0,0,7.667V28.04a1.673,1.673,0,0,0,1.667,1.667h11.7l-.929,4.638H10.53A1.263,1.263,0,0,0,9.27,35.6v.98a1.263,1.263,0,0,0,1.26,1.26H22.053a1.263,1.263,0,0,0,1.26-1.26V35.6a1.263,1.263,0,0,0-1.26-1.26H20.144l-.929-4.638h11.7a1.673,1.673,0,0,0,1.667-1.667V7.667A1.678,1.678,0,0,0,30.909,6ZM22.053,35.325a.282.282,0,0,1,.28.28v.98a.282.282,0,0,1-.28.28H10.524a.282.282,0,0,1-.28-.28V35.6a.282.282,0,0,1,.28-.28Zm-8.621-.98.929-4.638H18.21l.929,4.638ZM31.6,28.04a.684.684,0,0,1-.687.687H1.667A.684.684,0,0,1,.98,28.04V25.622H31.6V28.04Zm0-3.4H.98V7.667a.684.684,0,0,1,.687-.687H30.909a.684.684,0,0,1,.687.687V24.642Z" transform="translate(0 -6)" fill="#fff" stroke="#fff" stroke-width="0.5"/>
          <path id="Path_569" data-name="Path 569" d="M440.079,321.358a1.279,1.279,0,1,0-1.279-1.279A1.279,1.279,0,0,0,440.079,321.358Zm0-1.584a.3.3,0,1,1-.3.3A.3.3,0,0,1,440.079,319.773Z" transform="translate(-410.881 -298.898)" fill="#fff" stroke="#fff" stroke-width="0.5"/>
          <path id="Path_570" data-name="Path 570" d="M387.279,321.358A1.279,1.279,0,1,0,386,320.079,1.279,1.279,0,0,0,387.279,321.358Zm0-1.584a.305.305,0,0,1,.305.305.3.3,0,0,1-.305.3.3.3,0,1,1,0-.6Z" transform="translate(-361.441 -298.898)" fill="#fff" stroke="#fff" stroke-width="0.5"/>
          <path id="Path_571" data-name="Path 571" d="M47.984,60.6H42.213A1.115,1.115,0,0,0,41.1,61.713V69.7a1.115,1.115,0,0,0,1.113,1.113h5.777A1.115,1.115,0,0,0,49.1,69.7V61.713A1.12,1.12,0,0,0,47.984,60.6Zm.14,9.1a.134.134,0,0,1-.134.134H42.213a.134.134,0,0,1-.134-.134V61.713a.134.134,0,0,1,.134-.134h5.777a.134.134,0,0,1,.134.134Z" transform="translate(-38.485 -57.126)" fill="#fff" stroke="#fff" stroke-width="0.5"/>
          <path id="Path_572" data-name="Path 572" d="M48.521,242.2H41.49a.49.49,0,1,0,0,.98h7.031a.49.49,0,1,0,0-.98Z" transform="translate(-38.391 -227.172)" fill="#fff" stroke="#fff" stroke-width="0.5"/>
          <path id="Path_573" data-name="Path 573" d="M199.991,60.6h-5.777a1.115,1.115,0,0,0-1.113,1.113V69.7a1.115,1.115,0,0,0,1.113,1.113h5.777A1.115,1.115,0,0,0,201.1,69.7V61.713A1.115,1.115,0,0,0,199.991,60.6Zm.134,9.1a.134.134,0,0,1-.134.134h-5.777a.134.134,0,0,1-.134-.134V61.713a.134.134,0,0,1,.134-.134h5.777a.134.134,0,0,1,.134.134Z" transform="translate(-180.814 -57.126)" fill="#fff" stroke="#fff" stroke-width="0.5"/>
          <path id="Path_574" data-name="Path 574" d="M200.614,242.2H193.59a.49.49,0,0,0,0,.98h7.031a.486.486,0,0,0,.49-.49A.492.492,0,0,0,200.614,242.2Z" transform="translate(-180.814 -227.172)" fill="#fff" stroke="#fff" stroke-width="0.5"/>
          <path id="Path_575" data-name="Path 575" d="M351.991,60.6h-5.777a1.115,1.115,0,0,0-1.113,1.113V69.7a1.115,1.115,0,0,0,1.113,1.113h5.777A1.115,1.115,0,0,0,353.1,69.7V61.713A1.111,1.111,0,0,0,351.991,60.6Zm.14,9.1a.134.134,0,0,1-.134.134H346.22a.134.134,0,0,1-.134-.134V61.713a.134.134,0,0,1,.134-.134H352a.134.134,0,0,1,.134.134Z" transform="translate(-323.143 -57.126)" fill="#fff" stroke="#fff" stroke-width="0.5"/>
          <path id="Path_576" data-name="Path 576" d="M352.621,242.2H345.59a.49.49,0,0,0,0,.98h7.031a.49.49,0,0,0,0-.98Z" transform="translate(-323.143 -227.172)" fill="#fff" stroke="#fff" stroke-width="0.5"/>
        </g>
      </g>
    </g>
  </g>
</svg>
