<svg id="facebook-logo" xmlns="http://www.w3.org/2000/svg" width="21" height="21" viewBox="0 0 11.4 21.086">
  <path id="Path_527" data-name="Path 527"
    d="M33.048,0,30.313,0a4.8,4.8,0,0,0-5.057,5.189V7.582H22.507a.43.43,0,0,0-.43.43v3.467a.43.43,0,0,0,.43.43h2.749v8.747a.43.43,0,0,0,.43.43h3.587a.43.43,0,0,0,.43-.43V11.909h3.215a.43.43,0,0,0,.43-.43V8.012a.43.43,0,0,0-.43-.43H29.7V5.554c0-.975.232-1.47,1.5-1.47h1.842a.43.43,0,0,0,.43-.43V.434A.43.43,0,0,0,33.048,0Z"
    transform="translate(-22.077)" />
</svg>