<svg id="instagram" xmlns="http://www.w3.org/2000/svg" width="21" height="21" viewBox="0 0 21.482 21.486">
  <path id="Path_529" data-name="Path 529"
    d="M21.876,6.317a7.851,7.851,0,0,0-.5-2.607A5.5,5.5,0,0,0,18.232.567a7.871,7.871,0,0,0-2.606-.5C14.476.013,14.111,0,11.194,0S7.911.013,6.765.063a7.853,7.853,0,0,0-2.606.5A5.242,5.242,0,0,0,2.253,1.8a5.29,5.29,0,0,0-1.238,1.9,7.872,7.872,0,0,0-.5,2.606C.461,7.463.449,7.828.449,10.745s.013,3.282.063,4.428a7.851,7.851,0,0,0,.5,2.607,5.5,5.5,0,0,0,3.144,3.144,7.872,7.872,0,0,0,2.607.5c1.146.05,1.511.063,4.428.063s3.282-.012,4.428-.063a7.849,7.849,0,0,0,2.606-.5,5.5,5.5,0,0,0,3.144-3.144,7.877,7.877,0,0,0,.5-2.607c.05-1.146.063-1.511.063-4.428s0-3.282-.055-4.428Zm-1.935,8.772a5.889,5.889,0,0,1-.369,1.994,3.564,3.564,0,0,1-2.04,2.04,5.91,5.91,0,0,1-1.994.369c-1.133.051-1.473.063-4.34.063s-3.211-.012-4.34-.063a5.886,5.886,0,0,1-1.994-.369,3.306,3.306,0,0,1-1.234-.8,3.34,3.34,0,0,1-.8-1.234,5.911,5.911,0,0,1-.369-1.994c-.05-1.133-.063-1.473-.063-4.34s.012-3.211.063-4.34A5.886,5.886,0,0,1,2.828,4.42a3.266,3.266,0,0,1,.806-1.234,3.335,3.335,0,0,1,1.234-.8,5.914,5.914,0,0,1,1.994-.369C8,1.964,8.335,1.952,11.2,1.952s3.211.013,4.34.063a5.889,5.889,0,0,1,1.994.369,3.3,3.3,0,0,1,1.234.8,3.34,3.34,0,0,1,.8,1.234,5.913,5.913,0,0,1,.369,1.994c.05,1.133.063,1.473.063,4.34s-.013,3.2-.063,4.336Zm0,0"
    transform="translate(-0.449 0)" />
  <path id="Path_530" data-name="Path 530"
    d="M130.468,124.5a5.519,5.519,0,1,0,5.519,5.519A5.521,5.521,0,0,0,130.468,124.5Zm0,9.1a3.58,3.58,0,1,1,3.58-3.58A3.581,3.581,0,0,1,130.468,133.6Zm0,0"
    transform="translate(-119.723 -119.274)" />
  <path id="Path_531" data-name="Path 531"
    d="M365.027,89.89a1.289,1.289,0,1,1-1.289-1.289A1.289,1.289,0,0,1,365.027,89.89Zm0,0"
    transform="translate(-347.256 -84.883)" />
</svg>