<svg xmlns="http://www.w3.org/2000/svg" width="21" height="21" viewBox="0 0 21.087 21.086">
  <path id="Icon_awesome-linkedin-in" data-name="Icon awesome-linkedin-in"
    d="M4.72,21.087H.348V7.009H4.72Zm-2.188-16A2.544,2.544,0,1,1,5.064,2.533,2.553,2.553,0,0,1,2.532,5.088Zm18.55,16H16.72V14.234c0-1.633-.033-3.728-2.273-3.728-2.273,0-2.621,1.775-2.621,3.61v6.971H7.459V7.009h4.193v1.92h.061a4.594,4.594,0,0,1,4.136-2.273c4.424,0,5.238,2.914,5.238,6.7v7.733Z"
    transform="translate(0 -0.001)" />
</svg>