<svg xmlns="http://www.w3.org/2000/svg" width="17.108" height="20" viewBox="0 0 17.108 20">
  <path id="Icon_metro-paypal" data-name="Icon metro-paypal" d="M12.36,13.837H14.2c4,0,6.277-1.8,7-5.511.023-.122.044-.24.062-.358a5.867,5.867,0,0,0,.069-.693c.007-.149.011-.237.01-.319A2.937,2.937,0,0,0,21.1,5.8a3.971,3.971,0,0,0-.681-1.02,6.011,6.011,0,0,0-4.571-1.7H9.572a.9.9,0,0,0-.888.759l-1.133,7.3L6.14,20.239a.54.54,0,0,0,.533.623h3.08l.943-5.6a1.678,1.678,0,0,1,1.663-1.422Zm10.114-5.1c-.88,4.19-3.73,6.413-8.272,6.413H12.36a.368.368,0,0,0-.364.313l-1.228,7.618H14a.786.786,0,0,0,.777-.663l.032-.167.617-3.9.04-.216a.786.786,0,0,1,.777-.663h.489c3.167,0,5.646-1.287,6.37-5.007a4.3,4.3,0,0,0-.624-3.724Z" transform="translate(-6.134 -3.085)" fill="#7c7c7c"/>
</svg>
