<svg id="noun_quality_1078235" xmlns="http://www.w3.org/2000/svg" width="62.86" height="62.86" viewBox="0 0 62.86 62.86">
  <path id="Path_38" data-name="Path 38" d="M57.332,51a25.945,25.945,0,0,0,4.891-15.258,25.892,25.892,0,0,0-7.564-18.714A26.356,26.356,0,1,0,35.944,61.953a23.992,23.992,0,0,0,7.238-1.043l.13-.065-.522-2.608-.2.065a24.1,24.1,0,0,1-6.782,1.043,23.6,23.6,0,1,1,19.106-9.651l-.13.13,2.282,1.3Z" transform="translate(-4.514 -4.375)"/>
  <path id="Path_39" data-name="Path 39" d="M55.531,11.059A31.122,31.122,0,0,0,33.3,1.8a29.8,29.8,0,0,0-8.412,1.174l-.13.065.456,2.413.2-.065A29.922,29.922,0,0,1,33.3,4.278,28.985,28.985,0,1,1,4.278,33.165,28.633,28.633,0,0,1,9.625,16.406l.13-.13L7.6,15.037l-.065.13A30.883,30.883,0,0,0,1.8,33.3,31.43,31.43,0,1,0,55.531,11.059Z" transform="translate(-1.8 -1.8)"/>
  <path id="Path_40" data-name="Path 40" d="M56.238,40.007a1.063,1.063,0,0,0-.848-.717l-8.02-1.174-3.586-7.3a1.158,1.158,0,0,0-1.956,0l-3.586,7.3L30.22,39.29a1.063,1.063,0,0,0-.848.717,1.129,1.129,0,0,0,.261,1.109l5.8,5.673-1.369,8.02a1.006,1.006,0,0,0,.456,1.043.987.987,0,0,0,1.109.065l7.173-3.782,7.173,3.782a1.228,1.228,0,0,0,.522.13,1.258,1.258,0,0,0,.652-.2,1.129,1.129,0,0,0,.456-1.043l-1.369-8.02,5.8-5.673A1.139,1.139,0,0,0,56.238,40.007Z" transform="translate(-11.376 -11.707)"/>
</svg>
