<svg xmlns="http://www.w3.org/2000/svg" width="131.197" height="76.114" viewBox="0 0 131.197 76.114">
  <g id="Group_128" data-name="Group 128" transform="translate(-32.93 -31.333)">
    <path id="Path_1" data-name="Path 1" d="M58.973,90.078c-.507.044-1.021.067-1.535.067A16.675,16.675,0,0,1,46,85.81c-3.392-3.153-5.183-7.683-5.183-13.1V49.513c0-5.4,1.792-9.915,5.181-13.054.109-.1.22-.2.332-.3H37.594a25.171,25.171,0,0,0-3.509,13.35V72.707c0,7.379,2.529,13.585,7.312,17.95a23.663,23.663,0,0,0,16.04,6,25.435,25.435,0,0,0,5.571-.611Z" transform="translate(0.784 3.279)"/>
    <path id="Path_2" data-name="Path 2" d="M67.553,48.773A20.128,20.128,0,0,1,61.93,60.924q-.315.312-.648.613v2.607c0,5.482-1.842,10.047-5.326,13.2a15.67,15.67,0,0,1-3,2.129l3.726,5.507a22.192,22.192,0,0,0,4-2.9c4.8-4.367,7.331-10.571,7.331-17.942V49.134Z" transform="translate(13.601 11.842)"/>
    <path id="Path_3" data-name="Path 3" d="M94.319,56.527a13.817,13.817,0,0,0-5.4-5.67,15.9,15.9,0,0,0-8.019-2.01l-.116,0a15.962,15.962,0,0,0-8.136,2.011,13.813,13.813,0,0,0-5.4,5.67,18.088,18.088,0,0,0-1.921,8.529v6.771a21.926,21.926,0,0,0,.188,2.927q.073.562.18,1.1c.071.363.149.717.24,1.066a16.07,16.07,0,0,0,1.08,2.972c.076.156.153.309.233.462s.161.3.245.452a13.733,13.733,0,0,0,4.725,4.961c.141.089.284.175.428.259.165.1.332.186.5.275l.027.013a16.174,16.174,0,0,0,7.49,1.721l.118,0a15.972,15.972,0,0,0,8.135-2.011,14.28,14.28,0,0,0,1.452-.97,5.246,5.246,0,0,0,5.094,2.985h.772V65.057A18.108,18.108,0,0,0,94.319,56.527Zm-4.4,15.514a10.242,10.242,0,0,1-2.5,7.2,8.572,8.572,0,0,1-6.639,2.722c-.087,0-.175,0-.26,0a8.5,8.5,0,0,1-6.379-2.718,10.234,10.234,0,0,1-2.495-7.2v-7.2a10.232,10.232,0,0,1,2.495-7.2,8.572,8.572,0,0,1,6.639-2.722c.087,0,.175,0,.262,0h0a8.5,8.5,0,0,1,6.379,2.72,10.242,10.242,0,0,1,2.5,7.2v7.2Z" transform="translate(21.999 11.891)"/>
    <path id="Path_4" data-name="Path 4" d="M106.118,40.674a12.548,12.548,0,0,0-7.352-1.7,11.3,11.3,0,0,0-8.492,4.179,16.8,16.8,0,0,0-3.135,10.462V94.765h6.295V72.96h3.737a5.547,5.547,0,0,0,5.547-5.547h-9.25l0-12.885c.178-5.526,1.86-7.891,3.781-8.922a7.119,7.119,0,0,1,6.689.311l.635.341,2-5.311Z" transform="translate(36.808 5.167)"/>
    <path id="Path_5" data-name="Path 5" d="M118.475,40.674a12.546,12.546,0,0,0-7.351-1.7,11.3,11.3,0,0,0-8.492,4.179A16.786,16.786,0,0,0,99.5,53.614V94.765h6.295V72.96h3.737a5.547,5.547,0,0,0,5.547-5.547h-9.25l0-12.885c.178-5.526,1.86-7.891,3.781-8.922a7.119,7.119,0,0,1,6.689.311l.636.341,2-5.311Z" transform="translate(45.198 5.167)"/>
    <path id="Path_6" data-name="Path 6" d="M53.419,67.377h0l3.714,5.485q.816-.506,1.583-1.08l.129-.1c.089-.065.176-.134.262-.2l.2-.161c.072-.059.144-.116.217-.176.087-.071.175-.144.26-.217.055-.047.111-.092.165-.139.143-.123.284-.247.421-.374l0,0h0a21.551,21.551,0,0,0,2.567-2.792A8.13,8.13,0,0,0,53.419,67.377Z" transform="translate(13.912 23.511)" fill="#343434"/>
    <path id="Path_7" data-name="Path 7" d="M61.642,80.41,52.96,67.589h0a7.547,7.547,0,0,1,10.484,2l8.682,12.819h0A7.546,7.546,0,0,1,61.642,80.41Z" transform="translate(13.6 23.732)"/>
    <path id="Path_8" data-name="Path 8" d="M44.631,36.934c.077-.077.154-.154.233-.232s.17-.163.255-.243c.055-.05.111-.1.166-.148l.166-.148H36.711v0a21.869,21.869,0,0,0-1.326,2.507Z" transform="translate(1.667 3.279)" fill="#343434"/>
    <path id="Rectangle_1" data-name="Rectangle 1" d="M5.044,0H33.209a0,0,0,0,1,0,0V3.425a5.044,5.044,0,0,1-5.044,5.044H0a0,0,0,0,1,0,0V5.044A5.044,5.044,0,0,1,5.044,0Z" transform="translate(32.93 31.333)"/>
    <path id="Path_9" data-name="Path 9" d="M64.579,49.122l-.534-.415,0,.02a16.187,16.187,0,0,1-6.13,13.022v2.812a17.591,17.591,0,0,0,6.736-13.874C64.653,50.159,64.626,49.637,64.579,49.122Z" transform="translate(16.966 11.797)" fill="#343434"/>
    <circle id="Ellipse_1" data-name="Ellipse 1" cx="16.657" cy="16.657" r="16.657" transform="translate(48.306 44.471)"/>
  </g>
</svg>
