<svg xmlns="http://www.w3.org/2000/svg" width="63.026" height="57.252" viewBox="0 0 63.026 57.252">
  <g id="noun_protect_2632608" transform="translate(0.5 0.5)">
    <path id="Path_30" data-name="Path 30" d="M320.8,287.892a57.536,57.536,0,0,1-11.136-6.5.807.807,0,0,0-.968,0,57.538,57.538,0,0,1-11.135,6.5,1.978,1.978,0,0,0-1.171,1.807v6.219c0,4.5,2.15,8.453,6.218,11.43a21.921,21.921,0,0,0,6.138,3.14.808.808,0,0,0,.446,0,23,23,0,0,0,6.342-3.133c4.211-2.977,6.437-6.932,6.437-11.438V289.7A1.978,1.978,0,0,0,320.8,287.892Zm-.443,8.026a11.281,11.281,0,0,1-3.229,7.948.807.807,0,0,0-1.61.078v.733a.8.8,0,0,0,.188.517q-.507.419-1.067.818a22.093,22.093,0,0,1-5.663,2.855,21.007,21.007,0,0,1-5.454-2.849q-.495-.364-.945-.746a.8.8,0,0,0,.264-.6v-.733a.807.807,0,1,0-1.614,0v.044a11.527,11.527,0,0,1-3.225-8.07V289.7a.363.363,0,0,1,.213-.333,59.347,59.347,0,0,0,10.964-6.324,59.342,59.342,0,0,0,10.964,6.324.363.363,0,0,1,.213.333Z" transform="translate(-259.946 -254.27)" stroke="#000" stroke-width="1"/>
    <path id="Path_31" data-name="Path 31" d="M386.318,444.135a.807.807,0,0,0-.807.807v.733a.807.807,0,1,0,1.614,0v-.733A.807.807,0,0,0,386.318,444.135Z" transform="translate(-337.083 -395.268)" stroke="#000" stroke-width="1"/>
    <path id="Path_32" data-name="Path 32" d="M404.03,444.135a.807.807,0,0,0-.807.807v.733a.807.807,0,1,0,1.614,0v-.733A.807.807,0,0,0,404.03,444.135Z" transform="translate(-352.413 -395.268)" stroke="#000" stroke-width="1"/>
    <path id="Path_33" data-name="Path 33" d="M421.742,444.135a.807.807,0,0,0-.807.807v.733a.807.807,0,1,0,1.614,0v-.733A.807.807,0,0,0,421.742,444.135Z" transform="translate(-367.743 -395.268)" stroke="#000" stroke-width="1"/>
    <path id="Path_34" data-name="Path 34" d="M368.607,444.135a.807.807,0,0,0-.807.807v.733a.807.807,0,1,0,1.614,0v-.733A.807.807,0,0,0,368.607,444.135Z" transform="translate(-321.753 -395.268)" stroke="#000" stroke-width="1"/>
    <path id="Path_35" data-name="Path 35" d="M350.894,444.135a.807.807,0,0,0-.807.807v.733a.807.807,0,1,0,1.614,0v-.733A.807.807,0,0,0,350.894,444.135Z" transform="translate(-306.422 -395.268)" stroke="#000" stroke-width="1"/>
    <path id="Path_36" data-name="Path 36" d="M366.545,367.775a.807.807,0,1,0-1.141-1.141l-4.2,4.2-2.143-2.143a.807.807,0,0,0-1.141,1.141l2.714,2.713a.807.807,0,0,0,1.141,0Z" transform="translate(-312.998 -327.983)" stroke="#000" stroke-width="1"/>
    <path id="Path_37" data-name="Path 37" d="M63.911,108.128a.807.807,0,0,0,.807-.807,5.4,5.4,0,0,1,5.486-5.483h.027a5.5,5.5,0,0,1,3.865,1.574A10.173,10.173,0,0,1,75.71,106.9a.807.807,0,0,0,1.587-.205v-.033A25.949,25.949,0,0,0,51.349,80.727H51.3a25.949,25.949,0,0,0-25.932,25.966.807.807,0,0,0,1.587.205,10.181,10.181,0,0,1,1.608-3.48,5.632,5.632,0,0,1,3.931-1.58,5.5,5.5,0,0,1,3.865,1.575,5.644,5.644,0,0,1,1.587,3.908.807.807,0,1,0,1.614,0,5.4,5.4,0,0,1,5.513-5.483,5.5,5.5,0,0,1,3.865,1.575,5.644,5.644,0,0,1,1.587,3.908v22.571a5.471,5.471,0,1,1-10.943,0,.807.807,0,1,0-1.614,0,7.085,7.085,0,1,0,14.17,0V107.32a5.4,5.4,0,0,1,5.486-5.482h.027a5.5,5.5,0,0,1,3.866,1.575,5.644,5.644,0,0,1,1.587,3.908.807.807,0,0,0,.807.807Zm-1.252-5.855a7.1,7.1,0,0,0-5-2.048h-.034a7.232,7.232,0,0,0-5.026,2.036l-.034.034a7.706,7.706,0,0,0-1.23,1.718A7.714,7.714,0,0,0,50.1,102.3l-.022-.023a7.1,7.1,0,0,0-5-2.048h-.034a7.232,7.232,0,0,0-5.026,2.036l-.034.035a7.707,7.707,0,0,0-1.23,1.718,7.711,7.711,0,0,0-1.229-1.718l-.022-.023a7.1,7.1,0,0,0-5-2.049h-.034a7.232,7.232,0,0,0-5.026,2.036l-.035.035c-.013.013-.027.028-.039.043a24.35,24.35,0,0,1,23.936-20h.049a24.351,24.351,0,0,1,23.951,20l-.04-.043-.022-.023a7.1,7.1,0,0,0-5-2.048H70.2a7.233,7.233,0,0,0-5.025,2.036l-.034.035a7.711,7.711,0,0,0-1.23,1.718,7.711,7.711,0,0,0-1.23-1.718l-.022-.023Z" transform="translate(-25.368 -80.727)" stroke="#000" stroke-width="1"/>
  </g>
</svg>
