<svg id="Group_13343" data-name="Group 13343" xmlns="http://www.w3.org/2000/svg" width="121.394" height="70.428" viewBox="0 0 121.394 70.428">
  <path id="Path_1" data-name="Path 1" d="M57.113,86.049c-.469.04-.945.062-1.42.062A15.429,15.429,0,0,1,45.114,82.1c-3.138-2.918-4.8-7.109-4.8-12.124V48.515c0-5,1.658-9.174,4.794-12.079.1-.093.2-.183.308-.273H37.332a23.29,23.29,0,0,0-3.247,12.352V69.976c0,6.828,2.34,12.57,6.766,16.609a21.9,21.9,0,0,0,14.841,5.548,23.535,23.535,0,0,0,5.155-.565Z" transform="translate(-32.291 -28.66)" fill="#00c7d4"/>
  <path id="Path_2" data-name="Path 2" d="M66.463,48.773a18.624,18.624,0,0,1-5.2,11.243q-.291.289-.6.567V63c0,5.072-1.7,9.3-4.928,12.217a14.5,14.5,0,0,1-2.772,1.97l3.447,5.1a20.534,20.534,0,0,0,3.7-2.681c4.437-4.041,6.783-9.781,6.783-16.6V49.107Z" transform="translate(-21.842 -21.68)" fill="#00c7d4"/>
  <path id="Path_3" data-name="Path 3" d="M92.153,55.954a12.785,12.785,0,0,0-5-5.246,14.716,14.716,0,0,0-7.42-1.86l-.107,0A14.769,14.769,0,0,0,72.1,50.707a12.781,12.781,0,0,0-4.995,5.246,16.736,16.736,0,0,0-1.777,7.892v6.265a20.288,20.288,0,0,0,.174,2.708q.068.52.166,1.021c.065.336.138.663.222.987a14.87,14.87,0,0,0,1,2.75c.07.144.141.286.216.427s.149.281.227.418A12.707,12.707,0,0,0,71.7,83.012c.131.082.263.162.4.239.152.089.308.172.465.255l.025.012a14.965,14.965,0,0,0,6.93,1.592l.109,0a14.779,14.779,0,0,0,7.527-1.861,13.214,13.214,0,0,0,1.344-.9,4.854,4.854,0,0,0,4.713,2.762h.715V63.846A16.755,16.755,0,0,0,92.153,55.954ZM88.081,70.308a9.477,9.477,0,0,1-2.309,6.66,7.931,7.931,0,0,1-6.143,2.518c-.081,0-.162,0-.241,0a7.866,7.866,0,0,1-5.9-2.515,9.47,9.47,0,0,1-2.309-6.66V63.65a9.467,9.467,0,0,1,2.309-6.66,7.931,7.931,0,0,1,6.143-2.518c.081,0,.162,0,.242,0h0a7.864,7.864,0,0,1,5.9,2.517,9.477,9.477,0,0,1,2.309,6.66v6.659Z" transform="translate(-14.996 -21.639)" fill="#00c7d4"/>
  <path id="Path_4" data-name="Path 4" d="M104.7,40.545a11.611,11.611,0,0,0-6.8-1.574,10.456,10.456,0,0,0-7.858,3.867,15.54,15.54,0,0,0-2.9,9.68V90.594h5.824V70.418h3.458a5.132,5.132,0,0,0,5.133-5.133H93l0-11.922c.165-5.113,1.721-7.3,3.5-8.256a6.587,6.587,0,0,1,6.189.287l.587.315,1.852-4.914Z" transform="translate(-2.923 -27.121)" fill="#00c7d4"/>
  <path id="Path_5" data-name="Path 5" d="M117.056,40.545a11.609,11.609,0,0,0-6.8-1.574,10.451,10.451,0,0,0-7.858,3.867,15.532,15.532,0,0,0-2.9,9.68V90.594h5.824V70.418h3.458a5.132,5.132,0,0,0,5.133-5.133h-8.559l0-11.922c.165-5.113,1.721-7.3,3.5-8.256a6.587,6.587,0,0,1,6.189.287l.589.315,1.85-4.914Z" transform="translate(3.917 -27.121)" fill="#00c7d4"/>
  <path id="Path_6" data-name="Path 6" d="M53.419,67.272h0l3.436,5.075q.755-.468,1.465-1l.12-.089c.082-.061.163-.124.242-.186l.19-.149c.067-.054.134-.107.2-.163s.162-.134.241-.2c.051-.044.1-.085.152-.129.132-.113.263-.228.39-.346l0,0h0A19.94,19.94,0,0,0,62.234,67.5,7.522,7.522,0,0,0,53.419,67.272Z" transform="translate(-21.589 -12.166)" fill="#0a979b"/>
  <path id="Path_7" data-name="Path 7" d="M60.993,79.354,52.96,67.491h0a6.983,6.983,0,0,1,9.7,1.853l8.033,11.861h0A6.982,6.982,0,0,1,60.993,79.354Z" transform="translate(-21.843 -11.986)" fill="#00c7d4"/>
  <path id="Path_8" data-name="Path 8" d="M43.94,36.876c.071-.071.143-.143.216-.214s.157-.151.236-.225c.051-.047.1-.092.154-.137l.154-.137H36.612v0a20.235,20.235,0,0,0-1.227,2.319Z" transform="translate(-31.571 -28.66)" fill="#0a979b"/>
  <path id="Rectangle_1" data-name="Rectangle 1" d="M5.044,0H30.728a0,0,0,0,1,0,0V2.792a5.044,5.044,0,0,1-5.044,5.044H0a0,0,0,0,1,0,0V5.044A5.044,5.044,0,0,1,5.044,0Z" fill="#00c7d4"/>
  <path id="Path_9" data-name="Path 9" d="M64.082,49.091l-.494-.384,0,.019a14.978,14.978,0,0,1-5.672,12.049v2.6A16.277,16.277,0,0,0,64.15,50.54C64.15,50.051,64.125,49.568,64.082,49.091Z" transform="translate(-19.099 -21.716)" fill="#0a979b"/>
  <circle id="Ellipse_1" data-name="Ellipse 1" cx="15.412" cy="15.412" r="15.412" transform="translate(14.227 12.156)" fill="#00c7d4"/>
</svg>
