<svg xmlns="http://www.w3.org/2000/svg" width="62.86" height="68.186" viewBox="0 0 62.86 68.186">
  <g id="noun_support_1614138" transform="translate(0 0)">
    <path id="Path_41" data-name="Path 41" d="M35.631,42.283a2.57,2.57,0,0,1,2.97,0,5.2,5.2,0,0,1,1.112,1.147,5.6,5.6,0,0,0,.995.048,2.425,2.425,0,0,0,.85-.083,3.5,3.5,0,0,0-.421-3.184,4.87,4.87,0,0,0-8.13,0A3.53,3.53,0,0,0,32.57,43.4a3.012,3.012,0,0,0,1.009.083h0a4.835,4.835,0,0,0,.884-.048,5.209,5.209,0,0,1,1.167-1.154Z" transform="translate(-13.091 -12.2)"/>
    <path id="Path_42" data-name="Path 42" d="M55.523,43.422a5.209,5.209,0,0,1,1.133-1.14,2.57,2.57,0,0,1,2.97,0,5.2,5.2,0,0,1,1.147,1.147,5.6,5.6,0,0,0,.995.048,2.425,2.425,0,0,0,.85-.083A3.5,3.5,0,0,0,62.2,40.21a4.87,4.87,0,0,0-8.13,0A3.53,3.53,0,0,0,53.63,43.4a3.012,3.012,0,0,0,1.009.083,4.835,4.835,0,0,0,.884-.062Z" transform="translate(-19.604 -12.2)"/>
    <path id="Path_43" data-name="Path 43" d="M4.9,45.561a6.735,6.735,0,0,0,4.338,4.062c.56.159.884.214,1.3.318l1.2.276,1.209.276h.152l.228.041a3.6,3.6,0,0,0,.49.09,4.6,4.6,0,0,0,4.835-4.062V45.1l.055-5.284.083-10.949a19.134,19.134,0,0,1,.781-4.987A18.416,18.416,0,0,1,21.826,19.3a16.958,16.958,0,0,1,8.054-6.217,17.718,17.718,0,0,1,2.48-.691l1.278-.193a11.743,11.743,0,0,1,1.285-.1l.642-.035h.642a7.255,7.255,0,0,1,1.285.076l1.271.193a12.658,12.658,0,0,1,1.25.3A16.972,16.972,0,0,1,48.5,17.985a17.46,17.46,0,0,1,4,8.9c.069.4.055.8.09,1.2a11.977,11.977,0,0,1,.048,1.25v2.625l.055,5.126.138,9.671c0,.76.035,1.561,0,2.259v1A7.769,7.769,0,0,1,52.7,51a12.793,12.793,0,0,1-1.154,3.633A13.5,13.5,0,0,1,49.478,57.6a12.862,12.862,0,0,1-2.508,2.176,12.634,12.634,0,0,1-5.07,1.9,6.134,6.134,0,0,0-2.432-3.9,6.065,6.065,0,0,0-2.508-1.064,5.948,5.948,0,0,0-2.549.117,5.6,5.6,0,0,0-3.454,2.625,4.78,4.78,0,0,0-.566,3.06c0,.117.463.207.988.193a1.858,1.858,0,0,0,.863-.124,4.082,4.082,0,0,1,.96-1.6,3.2,3.2,0,0,1,1.913-.939,2.8,2.8,0,0,1,2.134.642,2.646,2.646,0,0,1,0,4.076,2.8,2.8,0,0,1-2.128.636,3.177,3.177,0,0,1-1.9-.96,4.048,4.048,0,0,1-.96-1.6,2.28,2.28,0,0,0-1.022-.131c-.484,0-.857.09-.87.2A4.835,4.835,0,0,0,30.986,66a5.616,5.616,0,0,0,3.454,2.625,5.975,5.975,0,0,0,5.063-.953,6.148,6.148,0,0,0,2.459-4.089A14.161,14.161,0,0,0,48.179,61.8a14.859,14.859,0,0,0,3.226-2.39,15.763,15.763,0,0,0,2.646-3.454,15.335,15.335,0,0,0,1.6-4.4c.069-.4.145-.8.193-1.209v-.29l.138.069a4.1,4.1,0,0,0,1.492.311,4.65,4.65,0,0,0,.8-.048l.553-.076,2.314-.38.615-.1a7.074,7.074,0,0,0,.808-.2,6.541,6.541,0,0,0,1.554-.691,6.832,6.832,0,0,0,2.418-2.583,6.569,6.569,0,0,0,.649-1.727,7,7,0,0,0,.138-.912V35.275a6.478,6.478,0,0,0-.09-.919,6.825,6.825,0,0,0-4.145-5.195H63V26.026a28.515,28.515,0,0,0-.642-4.38,26.636,26.636,0,0,0-4.407-9.705,27.1,27.1,0,0,0-9.367-8.1,27.471,27.471,0,0,0-25.793.021,27.106,27.106,0,0,0-9.332,8.123A26.6,26.6,0,0,0,9.04,21.66,28.239,28.239,0,0,0,8.4,26.04c0,1.285,0,2.48.076,3.454a6.348,6.348,0,0,0-2.715,2.224,6.5,6.5,0,0,0-1.14,3.454v1.043l-.117,4.324L4.467,42.77a8.206,8.206,0,0,0,.062,1.382A6.4,6.4,0,0,0,4.9,45.561ZM63.611,34.806a3.01,3.01,0,0,1,0,.435v8.1a3.5,3.5,0,0,1-.055.435,3.081,3.081,0,0,1-.269.829,3.454,3.454,0,0,1-1.119,1.375,3.336,3.336,0,0,1-.739.421,4.048,4.048,0,0,1-.4.145l-.587.159-2.266.622-.532.152a2.072,2.072,0,0,1-.269.069,1.492,1.492,0,0,1-.546,0,1.789,1.789,0,0,1-.9-.442q0-.166,0-.332l.124-9.671.069-5.132v-1.63c.5.173,1.05.345,1.63.532l2.072.608,1.112.311a3.7,3.7,0,0,1,.794.318,3.557,3.557,0,0,1,1.858,2.694ZM11.665,22.372a25.994,25.994,0,0,1,4.428-8.358A24.958,24.958,0,0,1,24.5,7.106a24.845,24.845,0,0,1,22.395,0A24.93,24.93,0,0,1,55.3,13.965a25.987,25.987,0,0,1,4.449,8.393,32.087,32.087,0,0,1,.946,3.91l.2,1.768.062.518-.5-.076-2.114-.283c-.808-.1-1.547-.173-2.224-.228h0a7.948,7.948,0,0,0-.09-1.458,21.511,21.511,0,0,0-1.464-5.754,21.746,21.746,0,0,0-3.164-5.16A20.537,20.537,0,0,0,41.1,8.985c-.511-.117-1.009-.29-1.534-.366L37.99,8.384c-.525-.062-1.05-.069-1.575-.1h-.787l-.787.035a15.2,15.2,0,0,0-1.575.117L31.7,8.674a21.324,21.324,0,0,0-3.046.877,20.585,20.585,0,0,0-9.844,7.6,21.946,21.946,0,0,0-2.722,5.609,22.326,22.326,0,0,0-.891,5.409l-2.383.414-1.623.29-.829.145c.083-.857.214-1.748.3-2.763a31.774,31.774,0,0,1,.981-3.882ZM7.334,34.515a3.965,3.965,0,0,1,2.715-3.088l5.146-1.306.062,9.671L15.3,45.1v.974a1,1,0,0,0,0,.138,1.236,1.236,0,0,1-.159.511,1.257,1.257,0,0,1-1.14.635.691.691,0,0,1-.138,0h-.235l-1.2-.311L11.223,46.8c-.38-.076-.863-.166-1.078-.228a3.647,3.647,0,0,1-2.411-2.121,3.454,3.454,0,0,1-.228-.781,5.132,5.132,0,0,1-.062-.912l-.062-2.224-.09-4.269V35.262A3.937,3.937,0,0,1,7.334,34.515Z" transform="translate(-4.461 -0.64)"/>
    <path id="Path_44" data-name="Path 44" d="M38.763,60.762a10.438,10.438,0,0,0,13.512,0,8.22,8.22,0,0,0,2.763-4.38,2.1,2.1,0,0,0-.85-.566,2.024,2.024,0,0,0-.85-.276A15.059,15.059,0,0,1,50.3,58.1a9.167,9.167,0,0,1-9.546,0A15.128,15.128,0,0,1,37.7,55.54a2.356,2.356,0,0,0-1.009.318c-.421.207-.691.414-.691.49A8.186,8.186,0,0,0,38.763,60.762Z" transform="translate(-14.214 -17.617)"/>
  </g>
</svg>
