<svg id="twitter" xmlns="http://www.w3.org/2000/svg" width="21" height="21" viewBox="0 0 26.444 21.486">
  <g id="Group_4773" data-name="Group 4773">
    <path id="Path_528" data-name="Path 528"
      d="M26.444,50.544a11.3,11.3,0,0,1-3.124.856,5.391,5.391,0,0,0,2.385-3,10.834,10.834,0,0,1-3.438,1.312,5.421,5.421,0,0,0-9.378,3.707,5.582,5.582,0,0,0,.126,1.236A15.345,15.345,0,0,1,1.841,48.988a5.423,5.423,0,0,0,1.666,7.246,5.354,5.354,0,0,1-2.449-.668v.059A5.446,5.446,0,0,0,5.4,60.953a5.411,5.411,0,0,1-1.421.178,4.793,4.793,0,0,1-1.026-.093,5.473,5.473,0,0,0,5.066,3.777A10.893,10.893,0,0,1,1.3,67.127,10.154,10.154,0,0,1,0,67.053a15.262,15.262,0,0,0,8.317,2.433,15.324,15.324,0,0,0,15.43-15.427c0-.24-.008-.471-.02-.7A10.815,10.815,0,0,0,26.444,50.544Z"
      transform="translate(0 -48)" />
  </g>
</svg>